<svg width="72" height="72" viewBox="0 0 72 72" fill="none" xmlns="http://www.w3.org/2000/svg">
<path d="M7.875 36C7.875 20.467 20.467 7.875 36 7.875C44.3263 7.875 51.8069 11.4914 56.9588 17.2447L32.0019 44.8029L19.7557 32.5568L17.3693 34.9432L32.1231 49.6971L61.4234 17.3425L60.5162 16.2195C54.7445 9.07438 45.9058 4.5 36 4.5C18.603 4.5 4.5 18.603 4.5 36C4.5 53.397 18.603 67.5 36 67.5C53.397 67.5 67.5 53.397 67.5 36C67.5 31.0005 66.2671 26.7669 65.0294 23.7735L62.4892 26.5785C63.3761 29.1053 64.125 32.3277 64.125 36C64.125 51.533 51.533 64.125 36 64.125C20.467 64.125 7.875 51.533 7.875 36Z" fill="#15151A"/>
</svg>
