<svg width="72" height="72" viewBox="0 0 72 72" fill="none" xmlns="http://www.w3.org/2000/svg">
<path d="M9.61699 16.367C16.4397 9.54434 27.5014 9.54433 34.324 16.367L35.9999 18.0428L37.6757 16.367C44.4983 9.54434 55.5601 9.54433 62.3827 16.367C69.2054 23.1897 69.2054 34.2514 62.3827 41.074L41.9664 61.4903L39.58 59.1038L59.9962 38.6875C65.5009 33.1829 65.5009 24.2581 59.9962 18.7535C54.4916 13.2488 45.5668 13.2488 40.0622 18.7535L35.9999 22.8158L31.9375 18.7535C26.4329 13.2488 17.5081 13.2488 12.0035 18.7535C6.49884 24.2581 6.49884 33.1829 12.0035 38.6875L38.3863 65.0704L35.9999 67.4569L9.61699 41.074C2.79434 34.2514 2.79433 23.1897 9.61699 16.367Z" fill="#15151A"/>
</svg>
