<svg width="46" height="46" viewBox="0 0 46 46" fill="none" xmlns="http://www.w3.org/2000/svg">
<ellipse cx="23.0497" cy="23" rx="22.9509" ry="23" fill="#F2F4F7"/>
<path d="M43.0661 34.2407C45.0312 30.7327 46.0423 26.7709 45.9986 22.7502C45.955 18.7296 44.858 14.7906 42.8172 11.3262C40.7764 7.86171 37.863 4.9928 34.3675 3.00552C30.8721 1.01824 26.9167 -0.0179664 22.8959 0.000235667L22.9045 1.90715C26.592 1.89045 30.2194 2.84075 33.425 4.66326C36.6307 6.48577 39.3025 9.11682 41.1742 12.294C43.0458 15.4713 44.0518 19.0836 44.0918 22.7709C44.1319 26.4582 43.2046 30.0916 41.4024 33.3087L43.0661 34.2407Z" fill="black"/>
<path d="M24.633 17.3011V28.9375H22.8716V19.0625H22.8034L20.0193 20.8807V19.1989L22.9227 17.3011H24.633Z" fill="#1F2026"/>
</svg>
