<svg width="72" height="72" viewBox="0 0 72 72" fill="none" xmlns="http://www.w3.org/2000/svg">
<path d="M63.0157 6.66354L60.4385 4.48438L54.0121 12.0846C50.6079 8.12958 45.5652 5.62523 39.9375 5.62523H32.0625C21.8108 5.62523 13.5 13.9359 13.5 24.1877V47.8127C13.5 48.3754 13.5251 48.9322 13.5741 49.4822L16.875 45.5783V24.1877C16.875 15.7999 23.6747 9.00023 32.0625 9.00023H39.9375C44.7366 9.00023 49.0158 11.2261 51.799 14.7019L8.98438 65.3366L11.5616 67.5157L17.9878 59.9157C21.392 63.8708 26.4348 66.3752 32.0625 66.3752H39.9375C50.1893 66.3752 58.5 58.0645 58.5 47.8127V24.1877C58.5 23.6249 58.475 23.068 58.426 22.518L55.125 26.4218V47.8127C55.125 56.2006 48.3254 63.0002 39.9375 63.0002H32.0625C27.2634 63.0002 22.9841 60.7742 20.2009 57.2984L63.0157 6.66354Z" fill="#15151A"/>
</svg>
